<mxfile host="Electron" agent="Mozilla/5.0 (Windows NT 10.0; Win64; x64) AppleWebKit/537.36 (KHTML, like Gecko) draw.io/24.7.17 Chrome/128.0.6613.36 Electron/32.0.1 Safari/537.36" version="24.7.17">
  <diagram id="R2lEEEUBdFMjLlhIrx00" name="Page-1">
    <mxGraphModel dx="2284" dy="836" grid="1" gridSize="10" guides="1" tooltips="1" connect="1" arrows="1" fold="1" page="1" pageScale="1" pageWidth="850" pageHeight="1100" math="0" shadow="0" extFonts="Permanent Marker^https://fonts.googleapis.com/css?family=Permanent+Marker">
      <root>
        <mxCell id="0" />
        <mxCell id="1" parent="0" />
        <mxCell id="_SmByAZBIUZgvU09OfwZ-1" value="Lieferant" style="rounded=0;whiteSpace=wrap;html=1;" vertex="1" parent="1">
          <mxGeometry x="80" y="90" width="140" height="90" as="geometry" />
        </mxCell>
        <mxCell id="_SmByAZBIUZgvU09OfwZ-2" value="Material" style="rounded=0;whiteSpace=wrap;html=1;" vertex="1" parent="1">
          <mxGeometry x="525" y="470" width="150" height="90" as="geometry" />
        </mxCell>
        <mxCell id="_SmByAZBIUZgvU09OfwZ-15" style="edgeStyle=orthogonalEdgeStyle;rounded=0;orthogonalLoop=1;jettySize=auto;html=1;exitX=1;exitY=0.5;exitDx=0;exitDy=0;entryX=0;entryY=0.5;entryDx=0;entryDy=0;" edge="1" parent="1" source="_SmByAZBIUZgvU09OfwZ-3" target="_SmByAZBIUZgvU09OfwZ-2">
          <mxGeometry relative="1" as="geometry" />
        </mxCell>
        <mxCell id="_SmByAZBIUZgvU09OfwZ-17" value="n" style="edgeLabel;html=1;align=center;verticalAlign=middle;resizable=0;points=[];" vertex="1" connectable="0" parent="_SmByAZBIUZgvU09OfwZ-15">
          <mxGeometry x="0.8885" y="2" relative="1" as="geometry">
            <mxPoint as="offset" />
          </mxGeometry>
        </mxCell>
        <mxCell id="_SmByAZBIUZgvU09OfwZ-19" value="1" style="edgeLabel;html=1;align=center;verticalAlign=middle;resizable=0;points=[];" vertex="1" connectable="0" parent="_SmByAZBIUZgvU09OfwZ-15">
          <mxGeometry x="-0.8164" y="-2" relative="1" as="geometry">
            <mxPoint as="offset" />
          </mxGeometry>
        </mxCell>
        <mxCell id="_SmByAZBIUZgvU09OfwZ-3" value="Einkauf" style="rounded=0;whiteSpace=wrap;html=1;" vertex="1" parent="1">
          <mxGeometry x="80" y="470" width="140" height="90" as="geometry" />
        </mxCell>
        <mxCell id="_SmByAZBIUZgvU09OfwZ-12" value="" style="edgeStyle=orthogonalEdgeStyle;rounded=0;orthogonalLoop=1;jettySize=auto;html=1;" edge="1" parent="1" source="_SmByAZBIUZgvU09OfwZ-4" target="_SmByAZBIUZgvU09OfwZ-11">
          <mxGeometry relative="1" as="geometry" />
        </mxCell>
        <mxCell id="_SmByAZBIUZgvU09OfwZ-4" value="Lager" style="rounded=0;whiteSpace=wrap;html=1;" vertex="1" parent="1">
          <mxGeometry x="535" y="90" width="140" height="90" as="geometry" />
        </mxCell>
        <mxCell id="_SmByAZBIUZgvU09OfwZ-5" value="" style="endArrow=classic;startArrow=classic;html=1;rounded=0;entryX=0.5;entryY=1;entryDx=0;entryDy=0;exitX=0.5;exitY=0;exitDx=0;exitDy=0;" edge="1" parent="1" source="_SmByAZBIUZgvU09OfwZ-6" target="_SmByAZBIUZgvU09OfwZ-1">
          <mxGeometry width="50" height="50" relative="1" as="geometry">
            <mxPoint x="400" y="450" as="sourcePoint" />
            <mxPoint x="450" y="400" as="targetPoint" />
            <Array as="points" />
          </mxGeometry>
        </mxCell>
        <mxCell id="_SmByAZBIUZgvU09OfwZ-9" value="n" style="edgeLabel;html=1;align=center;verticalAlign=middle;resizable=0;points=[];" vertex="1" connectable="0" parent="_SmByAZBIUZgvU09OfwZ-5">
          <mxGeometry x="0.56" y="1" relative="1" as="geometry">
            <mxPoint as="offset" />
          </mxGeometry>
        </mxCell>
        <mxCell id="_SmByAZBIUZgvU09OfwZ-7" value="" style="endArrow=classic;startArrow=classic;html=1;rounded=0;entryX=0.5;entryY=1;entryDx=0;entryDy=0;exitX=0.5;exitY=0;exitDx=0;exitDy=0;" edge="1" parent="1" source="_SmByAZBIUZgvU09OfwZ-3" target="_SmByAZBIUZgvU09OfwZ-6">
          <mxGeometry width="50" height="50" relative="1" as="geometry">
            <mxPoint x="140" y="330" as="sourcePoint" />
            <mxPoint x="140" y="180" as="targetPoint" />
            <Array as="points">
              <mxPoint x="150" y="360" />
            </Array>
          </mxGeometry>
        </mxCell>
        <mxCell id="_SmByAZBIUZgvU09OfwZ-8" value="1" style="edgeLabel;html=1;align=center;verticalAlign=middle;resizable=0;points=[];" vertex="1" connectable="0" parent="_SmByAZBIUZgvU09OfwZ-7">
          <mxGeometry x="-0.7333" y="-4" relative="1" as="geometry">
            <mxPoint as="offset" />
          </mxGeometry>
        </mxCell>
        <mxCell id="_SmByAZBIUZgvU09OfwZ-6" value="bestellt" style="rhombus;whiteSpace=wrap;html=1;" vertex="1" parent="1">
          <mxGeometry x="100" y="280" width="100" height="90" as="geometry" />
        </mxCell>
        <mxCell id="_SmByAZBIUZgvU09OfwZ-10" style="edgeStyle=orthogonalEdgeStyle;rounded=0;orthogonalLoop=1;jettySize=auto;html=1;exitX=0.5;exitY=1;exitDx=0;exitDy=0;entryX=0.533;entryY=0.111;entryDx=0;entryDy=0;entryPerimeter=0;" edge="1" parent="1" source="_SmByAZBIUZgvU09OfwZ-4" target="_SmByAZBIUZgvU09OfwZ-2">
          <mxGeometry relative="1" as="geometry" />
        </mxCell>
        <mxCell id="_SmByAZBIUZgvU09OfwZ-13" value="n" style="edgeLabel;html=1;align=center;verticalAlign=middle;resizable=0;points=[];" vertex="1" connectable="0" parent="_SmByAZBIUZgvU09OfwZ-10">
          <mxGeometry x="0.8078" y="2" relative="1" as="geometry">
            <mxPoint as="offset" />
          </mxGeometry>
        </mxCell>
        <mxCell id="_SmByAZBIUZgvU09OfwZ-14" value="1" style="edgeLabel;html=1;align=center;verticalAlign=middle;resizable=0;points=[];" vertex="1" connectable="0" parent="_SmByAZBIUZgvU09OfwZ-10">
          <mxGeometry x="-0.8308" relative="1" as="geometry">
            <mxPoint as="offset" />
          </mxGeometry>
        </mxCell>
        <mxCell id="_SmByAZBIUZgvU09OfwZ-11" value="lagert" style="rhombus;whiteSpace=wrap;html=1;rounded=0;" vertex="1" parent="1">
          <mxGeometry x="565" y="265" width="80" height="80" as="geometry" />
        </mxCell>
        <mxCell id="_SmByAZBIUZgvU09OfwZ-18" value="bestellt" style="rhombus;whiteSpace=wrap;html=1;rounded=0;" vertex="1" parent="1">
          <mxGeometry x="330" y="475" width="80" height="80" as="geometry" />
        </mxCell>
        <mxCell id="_SmByAZBIUZgvU09OfwZ-21" value="Erstellt am" style="ellipse;whiteSpace=wrap;html=1;" vertex="1" parent="1">
          <mxGeometry x="670" y="640" width="110" height="40" as="geometry" />
        </mxCell>
        <mxCell id="_SmByAZBIUZgvU09OfwZ-22" value="Lagerort" style="ellipse;whiteSpace=wrap;html=1;" vertex="1" parent="1">
          <mxGeometry x="480" y="640" width="110" height="40" as="geometry" />
        </mxCell>
        <mxCell id="_SmByAZBIUZgvU09OfwZ-35" style="edgeStyle=orthogonalEdgeStyle;rounded=0;orthogonalLoop=1;jettySize=auto;html=1;exitX=0.5;exitY=0;exitDx=0;exitDy=0;entryX=0;entryY=0.75;entryDx=0;entryDy=0;endArrow=none;endFill=0;" edge="1" parent="1" source="_SmByAZBIUZgvU09OfwZ-23" target="_SmByAZBIUZgvU09OfwZ-2">
          <mxGeometry relative="1" as="geometry" />
        </mxCell>
        <mxCell id="_SmByAZBIUZgvU09OfwZ-23" value="Einkaufspreis" style="ellipse;whiteSpace=wrap;html=1;" vertex="1" parent="1">
          <mxGeometry x="440" y="590" width="110" height="40" as="geometry" />
        </mxCell>
        <mxCell id="_SmByAZBIUZgvU09OfwZ-24" value="Preis" style="ellipse;whiteSpace=wrap;html=1;" vertex="1" parent="1">
          <mxGeometry x="570" y="680" width="110" height="40" as="geometry" />
        </mxCell>
        <mxCell id="_SmByAZBIUZgvU09OfwZ-29" style="edgeStyle=orthogonalEdgeStyle;rounded=0;orthogonalLoop=1;jettySize=auto;html=1;exitX=0;exitY=1;exitDx=0;exitDy=0;entryX=1;entryY=0;entryDx=0;entryDy=0;endArrow=none;endFill=0;" edge="1" parent="1" source="_SmByAZBIUZgvU09OfwZ-25" target="_SmByAZBIUZgvU09OfwZ-2">
          <mxGeometry relative="1" as="geometry" />
        </mxCell>
        <mxCell id="_SmByAZBIUZgvU09OfwZ-25" value="StÃ¼ckzahl" style="ellipse;whiteSpace=wrap;html=1;" vertex="1" parent="1">
          <mxGeometry x="675" y="400" width="110" height="40" as="geometry" />
        </mxCell>
        <mxCell id="_SmByAZBIUZgvU09OfwZ-26" value="Materialtyp" style="ellipse;whiteSpace=wrap;html=1;" vertex="1" parent="1">
          <mxGeometry x="700" y="580" width="110" height="40" as="geometry" />
        </mxCell>
        <mxCell id="_SmByAZBIUZgvU09OfwZ-31" style="edgeStyle=orthogonalEdgeStyle;rounded=0;orthogonalLoop=1;jettySize=auto;html=1;exitX=0;exitY=1;exitDx=0;exitDy=0;endArrow=none;endFill=0;" edge="1" parent="1" source="_SmByAZBIUZgvU09OfwZ-27" target="_SmByAZBIUZgvU09OfwZ-2">
          <mxGeometry relative="1" as="geometry" />
        </mxCell>
        <mxCell id="_SmByAZBIUZgvU09OfwZ-27" value="Materialname" style="ellipse;whiteSpace=wrap;html=1;" vertex="1" parent="1">
          <mxGeometry x="700" y="520" width="110" height="40" as="geometry" />
        </mxCell>
        <mxCell id="_SmByAZBIUZgvU09OfwZ-37" style="edgeStyle=orthogonalEdgeStyle;rounded=0;orthogonalLoop=1;jettySize=auto;html=1;exitX=0;exitY=1;exitDx=0;exitDy=0;entryX=1;entryY=0.25;entryDx=0;entryDy=0;endArrow=none;endFill=0;" edge="1" parent="1" source="_SmByAZBIUZgvU09OfwZ-28" target="_SmByAZBIUZgvU09OfwZ-2">
          <mxGeometry relative="1" as="geometry" />
        </mxCell>
        <mxCell id="_SmByAZBIUZgvU09OfwZ-28" value="&lt;u&gt;Materialnummer&lt;/u&gt;" style="ellipse;whiteSpace=wrap;html=1;" vertex="1" parent="1">
          <mxGeometry x="710" y="460" width="110" height="40" as="geometry" />
        </mxCell>
        <mxCell id="_SmByAZBIUZgvU09OfwZ-32" style="edgeStyle=orthogonalEdgeStyle;rounded=0;orthogonalLoop=1;jettySize=auto;html=1;exitX=0;exitY=0.5;exitDx=0;exitDy=0;entryX=0.933;entryY=1.044;entryDx=0;entryDy=0;entryPerimeter=0;endArrow=none;endFill=0;" edge="1" parent="1" source="_SmByAZBIUZgvU09OfwZ-26" target="_SmByAZBIUZgvU09OfwZ-2">
          <mxGeometry relative="1" as="geometry" />
        </mxCell>
        <mxCell id="_SmByAZBIUZgvU09OfwZ-33" style="edgeStyle=orthogonalEdgeStyle;rounded=0;orthogonalLoop=1;jettySize=auto;html=1;exitX=0;exitY=0.5;exitDx=0;exitDy=0;entryX=0.82;entryY=1.011;entryDx=0;entryDy=0;entryPerimeter=0;endArrow=none;endFill=0;" edge="1" parent="1" source="_SmByAZBIUZgvU09OfwZ-21" target="_SmByAZBIUZgvU09OfwZ-2">
          <mxGeometry relative="1" as="geometry" />
        </mxCell>
        <mxCell id="_SmByAZBIUZgvU09OfwZ-34" style="edgeStyle=orthogonalEdgeStyle;rounded=0;orthogonalLoop=1;jettySize=auto;html=1;exitX=0.5;exitY=0;exitDx=0;exitDy=0;entryX=0.667;entryY=0.967;entryDx=0;entryDy=0;entryPerimeter=0;endArrow=none;endFill=0;" edge="1" parent="1" source="_SmByAZBIUZgvU09OfwZ-24" target="_SmByAZBIUZgvU09OfwZ-2">
          <mxGeometry relative="1" as="geometry" />
        </mxCell>
        <mxCell id="_SmByAZBIUZgvU09OfwZ-36" style="edgeStyle=orthogonalEdgeStyle;rounded=0;orthogonalLoop=1;jettySize=auto;html=1;exitX=1;exitY=0;exitDx=0;exitDy=0;entryX=0.32;entryY=1.022;entryDx=0;entryDy=0;entryPerimeter=0;endArrow=none;endFill=0;" edge="1" parent="1" source="_SmByAZBIUZgvU09OfwZ-22" target="_SmByAZBIUZgvU09OfwZ-2">
          <mxGeometry relative="1" as="geometry" />
        </mxCell>
        <mxCell id="_SmByAZBIUZgvU09OfwZ-52" value="" style="edgeStyle=orthogonalEdgeStyle;rounded=0;orthogonalLoop=1;jettySize=auto;html=1;endArrow=none;endFill=0;" edge="1" parent="1" source="_SmByAZBIUZgvU09OfwZ-39" target="_SmByAZBIUZgvU09OfwZ-1">
          <mxGeometry relative="1" as="geometry" />
        </mxCell>
        <mxCell id="_SmByAZBIUZgvU09OfwZ-39" value="Hausnummer" style="ellipse;whiteSpace=wrap;html=1;" vertex="1" parent="1">
          <mxGeometry x="-50" y="110" width="110" height="40" as="geometry" />
        </mxCell>
        <mxCell id="_SmByAZBIUZgvU09OfwZ-40" value="StraÃe" style="ellipse;whiteSpace=wrap;html=1;" vertex="1" parent="1">
          <mxGeometry x="-50" y="60" width="110" height="40" as="geometry" />
        </mxCell>
        <mxCell id="_SmByAZBIUZgvU09OfwZ-41" value="PLZ" style="ellipse;whiteSpace=wrap;html=1;" vertex="1" parent="1">
          <mxGeometry x="230" y="180" width="110" height="40" as="geometry" />
        </mxCell>
        <mxCell id="_SmByAZBIUZgvU09OfwZ-57" style="edgeStyle=orthogonalEdgeStyle;rounded=0;orthogonalLoop=1;jettySize=auto;html=1;exitX=0;exitY=0;exitDx=0;exitDy=0;endArrow=none;endFill=0;" edge="1" parent="1" source="_SmByAZBIUZgvU09OfwZ-42" target="_SmByAZBIUZgvU09OfwZ-1">
          <mxGeometry relative="1" as="geometry" />
        </mxCell>
        <mxCell id="_SmByAZBIUZgvU09OfwZ-42" value="Stadt" style="ellipse;whiteSpace=wrap;html=1;" vertex="1" parent="1">
          <mxGeometry x="240" y="130" width="110" height="40" as="geometry" />
        </mxCell>
        <mxCell id="_SmByAZBIUZgvU09OfwZ-43" value="Erstellt am" style="ellipse;whiteSpace=wrap;html=1;" vertex="1" parent="1">
          <mxGeometry x="50" y="10" width="110" height="40" as="geometry" />
        </mxCell>
        <mxCell id="_SmByAZBIUZgvU09OfwZ-58" style="edgeStyle=orthogonalEdgeStyle;rounded=0;orthogonalLoop=1;jettySize=auto;html=1;exitX=0;exitY=0.5;exitDx=0;exitDy=0;endArrow=none;endFill=0;" edge="1" parent="1" source="_SmByAZBIUZgvU09OfwZ-44" target="_SmByAZBIUZgvU09OfwZ-1">
          <mxGeometry relative="1" as="geometry" />
        </mxCell>
        <mxCell id="_SmByAZBIUZgvU09OfwZ-44" value="Lieferantenname" style="ellipse;whiteSpace=wrap;html=1;" vertex="1" parent="1">
          <mxGeometry x="250" y="80" width="110" height="40" as="geometry" />
        </mxCell>
        <mxCell id="_SmByAZBIUZgvU09OfwZ-45" value="&lt;u&gt;Lieferantennummer&lt;/u&gt;" style="ellipse;whiteSpace=wrap;html=1;" vertex="1" parent="1">
          <mxGeometry x="150" y="30" width="110" height="40" as="geometry" />
        </mxCell>
        <mxCell id="_SmByAZBIUZgvU09OfwZ-53" style="edgeStyle=orthogonalEdgeStyle;rounded=0;orthogonalLoop=1;jettySize=auto;html=1;exitX=1;exitY=0;exitDx=0;exitDy=0;entryX=0;entryY=0.75;entryDx=0;entryDy=0;endArrow=none;endFill=0;" edge="1" parent="1" source="_SmByAZBIUZgvU09OfwZ-46" target="_SmByAZBIUZgvU09OfwZ-1">
          <mxGeometry relative="1" as="geometry" />
        </mxCell>
        <mxCell id="_SmByAZBIUZgvU09OfwZ-46" value="Land" style="ellipse;whiteSpace=wrap;html=1;" vertex="1" parent="1">
          <mxGeometry x="-40" y="160" width="110" height="40" as="geometry" />
        </mxCell>
        <mxCell id="_SmByAZBIUZgvU09OfwZ-47" value="Kontaktperson" style="ellipse;whiteSpace=wrap;html=1;" vertex="1" parent="1">
          <mxGeometry x="30" y="200" width="110" height="40" as="geometry" />
        </mxCell>
        <mxCell id="_SmByAZBIUZgvU09OfwZ-55" style="edgeStyle=orthogonalEdgeStyle;rounded=0;orthogonalLoop=1;jettySize=auto;html=1;exitX=0.5;exitY=0;exitDx=0;exitDy=0;entryX=0.75;entryY=1;entryDx=0;entryDy=0;endArrow=none;endFill=0;" edge="1" parent="1" source="_SmByAZBIUZgvU09OfwZ-48" target="_SmByAZBIUZgvU09OfwZ-1">
          <mxGeometry relative="1" as="geometry" />
        </mxCell>
        <mxCell id="_SmByAZBIUZgvU09OfwZ-48" value="E-.Mail" style="ellipse;whiteSpace=wrap;html=1;" vertex="1" parent="1">
          <mxGeometry x="160" y="220" width="110" height="40" as="geometry" />
        </mxCell>
        <mxCell id="_SmByAZBIUZgvU09OfwZ-50" style="edgeStyle=orthogonalEdgeStyle;rounded=0;orthogonalLoop=1;jettySize=auto;html=1;exitX=0.5;exitY=1;exitDx=0;exitDy=0;entryX=0.193;entryY=-0.022;entryDx=0;entryDy=0;entryPerimeter=0;endArrow=none;endFill=0;" edge="1" parent="1" source="_SmByAZBIUZgvU09OfwZ-43" target="_SmByAZBIUZgvU09OfwZ-1">
          <mxGeometry relative="1" as="geometry" />
        </mxCell>
        <mxCell id="_SmByAZBIUZgvU09OfwZ-51" style="edgeStyle=orthogonalEdgeStyle;rounded=0;orthogonalLoop=1;jettySize=auto;html=1;exitX=1;exitY=0.5;exitDx=0;exitDy=0;entryX=-0.014;entryY=0.167;entryDx=0;entryDy=0;entryPerimeter=0;endArrow=none;endFill=0;" edge="1" parent="1" source="_SmByAZBIUZgvU09OfwZ-40" target="_SmByAZBIUZgvU09OfwZ-1">
          <mxGeometry relative="1" as="geometry" />
        </mxCell>
        <mxCell id="_SmByAZBIUZgvU09OfwZ-54" style="edgeStyle=orthogonalEdgeStyle;rounded=0;orthogonalLoop=1;jettySize=auto;html=1;exitX=0.5;exitY=0;exitDx=0;exitDy=0;entryX=0.086;entryY=1.022;entryDx=0;entryDy=0;entryPerimeter=0;endArrow=none;endFill=0;" edge="1" parent="1" source="_SmByAZBIUZgvU09OfwZ-47" target="_SmByAZBIUZgvU09OfwZ-1">
          <mxGeometry relative="1" as="geometry" />
        </mxCell>
        <mxCell id="_SmByAZBIUZgvU09OfwZ-56" style="edgeStyle=orthogonalEdgeStyle;rounded=0;orthogonalLoop=1;jettySize=auto;html=1;exitX=0;exitY=0;exitDx=0;exitDy=0;entryX=0.993;entryY=0.878;entryDx=0;entryDy=0;entryPerimeter=0;endArrow=none;endFill=0;" edge="1" parent="1" source="_SmByAZBIUZgvU09OfwZ-41" target="_SmByAZBIUZgvU09OfwZ-1">
          <mxGeometry relative="1" as="geometry" />
        </mxCell>
        <mxCell id="_SmByAZBIUZgvU09OfwZ-59" style="edgeStyle=orthogonalEdgeStyle;rounded=0;orthogonalLoop=1;jettySize=auto;html=1;exitX=0.5;exitY=1;exitDx=0;exitDy=0;entryX=0.864;entryY=-0.022;entryDx=0;entryDy=0;entryPerimeter=0;" edge="1" parent="1" source="_SmByAZBIUZgvU09OfwZ-45" target="_SmByAZBIUZgvU09OfwZ-1">
          <mxGeometry relative="1" as="geometry" />
        </mxCell>
        <mxCell id="_SmByAZBIUZgvU09OfwZ-60" value="&lt;u&gt;Lieferantennummer&lt;/u&gt;" style="ellipse;whiteSpace=wrap;html=1;" vertex="1" parent="1">
          <mxGeometry x="-60" y="480" width="110" height="40" as="geometry" />
        </mxCell>
        <mxCell id="_SmByAZBIUZgvU09OfwZ-61" value="Lieferantenname" style="ellipse;whiteSpace=wrap;html=1;" vertex="1" parent="1">
          <mxGeometry x="-50" y="540" width="110" height="40" as="geometry" />
        </mxCell>
        <mxCell id="_SmByAZBIUZgvU09OfwZ-72" style="edgeStyle=orthogonalEdgeStyle;rounded=0;orthogonalLoop=1;jettySize=auto;html=1;exitX=0.5;exitY=0;exitDx=0;exitDy=0;entryX=1;entryY=0.75;entryDx=0;entryDy=0;endArrow=none;endFill=0;" edge="1" parent="1" source="_SmByAZBIUZgvU09OfwZ-62" target="_SmByAZBIUZgvU09OfwZ-3">
          <mxGeometry relative="1" as="geometry" />
        </mxCell>
        <mxCell id="_SmByAZBIUZgvU09OfwZ-62" value="&lt;u&gt;Materialnummer&lt;/u&gt;" style="ellipse;whiteSpace=wrap;html=1;" vertex="1" parent="1">
          <mxGeometry x="190" y="580" width="110" height="40" as="geometry" />
        </mxCell>
        <mxCell id="_SmByAZBIUZgvU09OfwZ-63" value="Einkaufnummer" style="ellipse;whiteSpace=wrap;html=1;" vertex="1" parent="1">
          <mxGeometry x="-10" y="620" width="110" height="40" as="geometry" />
        </mxCell>
        <mxCell id="_SmByAZBIUZgvU09OfwZ-66" style="edgeStyle=orthogonalEdgeStyle;rounded=0;orthogonalLoop=1;jettySize=auto;html=1;exitX=1;exitY=1;exitDx=0;exitDy=0;entryX=0.25;entryY=0;entryDx=0;entryDy=0;endArrow=none;endFill=0;" edge="1" parent="1" source="_SmByAZBIUZgvU09OfwZ-64" target="_SmByAZBIUZgvU09OfwZ-3">
          <mxGeometry relative="1" as="geometry" />
        </mxCell>
        <mxCell id="_SmByAZBIUZgvU09OfwZ-64" value="Einheit" style="ellipse;whiteSpace=wrap;html=1;" vertex="1" parent="1">
          <mxGeometry x="-10" y="410" width="110" height="40" as="geometry" />
        </mxCell>
        <mxCell id="_SmByAZBIUZgvU09OfwZ-73" style="edgeStyle=orthogonalEdgeStyle;rounded=0;orthogonalLoop=1;jettySize=auto;html=1;exitX=0.5;exitY=0;exitDx=0;exitDy=0;entryX=0.5;entryY=1;entryDx=0;entryDy=0;endArrow=none;endFill=0;" edge="1" parent="1" source="_SmByAZBIUZgvU09OfwZ-65" target="_SmByAZBIUZgvU09OfwZ-3">
          <mxGeometry relative="1" as="geometry" />
        </mxCell>
        <mxCell id="_SmByAZBIUZgvU09OfwZ-65" value="StÃ¼ckzahl" style="ellipse;whiteSpace=wrap;html=1;" vertex="1" parent="1">
          <mxGeometry x="100" y="630" width="110" height="40" as="geometry" />
        </mxCell>
        <mxCell id="_SmByAZBIUZgvU09OfwZ-67" style="edgeStyle=orthogonalEdgeStyle;rounded=0;orthogonalLoop=1;jettySize=auto;html=1;exitX=1;exitY=0.5;exitDx=0;exitDy=0;entryX=0.029;entryY=0.333;entryDx=0;entryDy=0;entryPerimeter=0;endArrow=none;endFill=0;" edge="1" parent="1" source="_SmByAZBIUZgvU09OfwZ-60" target="_SmByAZBIUZgvU09OfwZ-3">
          <mxGeometry relative="1" as="geometry" />
        </mxCell>
        <mxCell id="_SmByAZBIUZgvU09OfwZ-68" style="edgeStyle=orthogonalEdgeStyle;rounded=0;orthogonalLoop=1;jettySize=auto;html=1;exitX=1;exitY=0;exitDx=0;exitDy=0;entryX=-0.014;entryY=0.578;entryDx=0;entryDy=0;entryPerimeter=0;endArrow=none;endFill=0;" edge="1" parent="1" source="_SmByAZBIUZgvU09OfwZ-61" target="_SmByAZBIUZgvU09OfwZ-3">
          <mxGeometry relative="1" as="geometry" />
        </mxCell>
        <mxCell id="_SmByAZBIUZgvU09OfwZ-69" style="edgeStyle=orthogonalEdgeStyle;rounded=0;orthogonalLoop=1;jettySize=auto;html=1;exitX=0.5;exitY=0;exitDx=0;exitDy=0;entryX=0.107;entryY=1;entryDx=0;entryDy=0;entryPerimeter=0;endArrow=none;endFill=0;" edge="1" parent="1" source="_SmByAZBIUZgvU09OfwZ-63" target="_SmByAZBIUZgvU09OfwZ-3">
          <mxGeometry relative="1" as="geometry" />
        </mxCell>
        <mxCell id="_SmByAZBIUZgvU09OfwZ-74" value="Lagerort" style="ellipse;whiteSpace=wrap;html=1;" vertex="1" parent="1">
          <mxGeometry x="700" y="150" width="110" height="40" as="geometry" />
        </mxCell>
        <mxCell id="_SmByAZBIUZgvU09OfwZ-82" style="edgeStyle=orthogonalEdgeStyle;rounded=0;orthogonalLoop=1;jettySize=auto;html=1;exitX=0.5;exitY=1;exitDx=0;exitDy=0;entryX=1;entryY=0.5;entryDx=0;entryDy=0;endArrow=none;endFill=0;" edge="1" parent="1" source="_SmByAZBIUZgvU09OfwZ-75" target="_SmByAZBIUZgvU09OfwZ-4">
          <mxGeometry relative="1" as="geometry" />
        </mxCell>
        <mxCell id="_SmByAZBIUZgvU09OfwZ-75" value="&lt;u&gt;Materialnummer&lt;/u&gt;" style="ellipse;whiteSpace=wrap;html=1;" vertex="1" parent="1">
          <mxGeometry x="700" y="80" width="110" height="40" as="geometry" />
        </mxCell>
        <mxCell id="_SmByAZBIUZgvU09OfwZ-76" value="Einheit" style="ellipse;whiteSpace=wrap;html=1;" vertex="1" parent="1">
          <mxGeometry x="640" y="10" width="110" height="40" as="geometry" />
        </mxCell>
        <mxCell id="_SmByAZBIUZgvU09OfwZ-80" style="edgeStyle=orthogonalEdgeStyle;rounded=0;orthogonalLoop=1;jettySize=auto;html=1;exitX=1;exitY=1;exitDx=0;exitDy=0;endArrow=none;endFill=0;" edge="1" parent="1" source="_SmByAZBIUZgvU09OfwZ-77" target="_SmByAZBIUZgvU09OfwZ-4">
          <mxGeometry relative="1" as="geometry" />
        </mxCell>
        <mxCell id="_SmByAZBIUZgvU09OfwZ-77" value="&lt;u&gt;Lagerorts ID&lt;/u&gt;" style="ellipse;whiteSpace=wrap;html=1;" vertex="1" parent="1">
          <mxGeometry x="480" y="30" width="110" height="40" as="geometry" />
        </mxCell>
        <mxCell id="_SmByAZBIUZgvU09OfwZ-79" style="edgeStyle=orthogonalEdgeStyle;rounded=0;orthogonalLoop=1;jettySize=auto;html=1;exitX=0.5;exitY=0;exitDx=0;exitDy=0;entryX=0;entryY=0.5;entryDx=0;entryDy=0;endArrow=none;endFill=0;" edge="1" parent="1" source="_SmByAZBIUZgvU09OfwZ-78" target="_SmByAZBIUZgvU09OfwZ-4">
          <mxGeometry relative="1" as="geometry" />
        </mxCell>
        <mxCell id="_SmByAZBIUZgvU09OfwZ-78" value="Einlagerungsdatum" style="ellipse;whiteSpace=wrap;html=1;" vertex="1" parent="1">
          <mxGeometry x="415" y="190" width="120" height="40" as="geometry" />
        </mxCell>
        <mxCell id="_SmByAZBIUZgvU09OfwZ-81" style="edgeStyle=orthogonalEdgeStyle;rounded=0;orthogonalLoop=1;jettySize=auto;html=1;exitX=0;exitY=0.5;exitDx=0;exitDy=0;entryX=0.686;entryY=0.044;entryDx=0;entryDy=0;entryPerimeter=0;endArrow=none;endFill=0;" edge="1" parent="1" source="_SmByAZBIUZgvU09OfwZ-76" target="_SmByAZBIUZgvU09OfwZ-4">
          <mxGeometry relative="1" as="geometry" />
        </mxCell>
        <mxCell id="_SmByAZBIUZgvU09OfwZ-83" style="edgeStyle=orthogonalEdgeStyle;rounded=0;orthogonalLoop=1;jettySize=auto;html=1;exitX=0.5;exitY=1;exitDx=0;exitDy=0;entryX=0.807;entryY=1;entryDx=0;entryDy=0;entryPerimeter=0;endArrow=none;endFill=0;" edge="1" parent="1" source="_SmByAZBIUZgvU09OfwZ-74" target="_SmByAZBIUZgvU09OfwZ-4">
          <mxGeometry relative="1" as="geometry" />
        </mxCell>
      </root>
    </mxGraphModel>
  </diagram>
</mxfile>
